<?xml version="1.0" standalone="no"?>
<!DOCTYPE svg PUBLIC "-//W3C//DTD SVG 20010904//EN"
 "http://www.w3.org/TR/2001/REC-SVG-20010904/DTD/svg10.dtd">
<svg version="1.0" xmlns="http://www.w3.org/2000/svg"
 width="96.000000pt" height="96.000000pt" viewBox="0 0 96.000000 96.000000"
 preserveAspectRatio="xMidYMid meet">
<metadata>
Created by potrace 1.11, written by Peter Selinger 2001-2013
</metadata>
<g transform="translate(0.000000,96.000000) scale(0.100000,-0.100000)"
fill="#000000" stroke="none">
<path d="M485 878 c-133 -99 -187 -249 -146 -411 15 -58 16 -70 4 -74 -36 -14
-92 83 -93 160 0 84 -48 51 -75 -53 -57 -216 84 -410 303 -417 133 -4 238 53
294 159 18 34 22 59 22 118 0 105 -25 152 -124 238 -105 90 -133 141 -128 230
4 77 -7 86 -57 50z m65 -395 c87 -94 99 -136 61 -199 -36 -59 -104 -74 -174
-38 l-30 16 31 15 c60 29 71 65 57 180 -8 64 1 115 14 81 3 -9 22 -34 41 -55z"/>
</g>
</svg>
