<?xml version="1.0" standalone="no"?>
<!DOCTYPE svg PUBLIC "-//W3C//DTD SVG 20010904//EN"
 "http://www.w3.org/TR/2001/REC-SVG-20010904/DTD/svg10.dtd">
<svg version="1.0" xmlns="http://www.w3.org/2000/svg"
 width="700.000000pt" height="700.000000pt" viewBox="0 0 700.000000 700.000000"
 preserveAspectRatio="xMidYMid meet">
<metadata>
Created by potrace 1.11, written by Peter Selinger 2001-2013
</metadata>
<g transform="translate(0.000000,700.000000) scale(0.100000,-0.100000)"
fill="#000000" stroke="none">
<path d="M3825 6562 c-32 -5 -63 -22 -185 -101 -204 -133 -306 -217 -510 -421
-247 -246 -442 -530 -565 -820 -15 -36 -34 -80 -42 -98 -45 -103 -117 -377
-142 -542 -31 -198 -34 -581 -6 -742 2 -13 11 -66 20 -118 9 -52 18 -108 21
-125 17 -94 92 -353 139 -480 19 -50 36 -107 39 -126 10 -80 -64 -164 -141
-161 -20 1 -56 13 -80 28 -58 34 -225 199 -291 289 -101 135 -202 371 -232
540 -5 33 -13 71 -17 85 -3 14 -7 142 -7 285 -1 233 -3 263 -19 287 -39 56
-145 78 -196 40 -85 -62 -262 -430 -331 -688 -24 -91 -23 -84 -45 -189 -25
-118 -24 -117 -30 -160 -3 -22 -7 -53 -9 -70 -4 -27 -13 -114 -21 -197 -5 -51
-6 -330 -1 -363 2 -16 7 -55 10 -86 9 -86 51 -282 85 -394 150 -503 436 -895
888 -1220 254 -183 712 -372 970 -401 27 -3 59 -7 73 -10 133 -24 547 -23 730
1 531 71 965 271 1291 595 176 174 290 330 392 535 148 299 215 580 215 910 0
276 -39 477 -143 744 -139 357 -337 595 -845 1020 -309 258 -456 395 -560 522
-25 29 -47 56 -50 59 -16 15 -112 164 -142 220 -42 79 -90 202 -113 290 -19
73 -20 76 -29 143 -4 27 -10 59 -12 70 -7 29 -6 290 0 347 13 118 17 143 42
268 19 98 13 141 -26 186 -30 34 -86 55 -125 48z m-159 -2562 c44 -133 150
-283 333 -472 69 -71 168 -173 219 -226 208 -215 306 -362 358 -537 31 -106
21 -332 -21 -475 -72 -246 -248 -458 -470 -568 -131 -65 -219 -86 -370 -86
-133 -1 -197 10 -330 56 -144 49 -436 229 -393 242 285 85 482 239 604 472 96
184 111 355 53 616 -26 117 -68 315 -74 348 -25 147 -25 331 1 485 6 39 44
173 57 205 9 23 11 23 14 5 3 -11 11 -40 19 -65z"/>
</g>
</svg>
