<?xml version="1.0" standalone="no"?>
<!DOCTYPE svg PUBLIC "-//W3C//DTD SVG 20010904//EN"
 "http://www.w3.org/TR/2001/REC-SVG-20010904/DTD/svg10.dtd">
<svg version="1.0" xmlns="http://www.w3.org/2000/svg"
 width="96.000000pt" height="96.000000pt" viewBox="0 0 96.000000 96.000000"
 preserveAspectRatio="xMidYMid meet">
<metadata>
Created by potrace 1.11, written by Peter Selinger 2001-2013
</metadata>
<g transform="translate(0.000000,96.000000) scale(0.100000,-0.100000)"
fill="#000000" stroke="none">
<path d="M145 814 l-25 -27 0 -299 c0 -322 4 -349 52 -362 30 -8 602 -8 623 0
39 15 45 53 45 288 l0 226 -100 100 -100 100 -235 0 -236 0 -24 -26z m605
-208 c0 -3 -34 -6 -75 -6 l-75 0 0 80 0 79 75 -74 c41 -40 75 -76 75 -79z
m-270 34 l0 -40 -100 0 -100 0 0 40 0 40 100 0 100 0 0 -40z m200 -160 l0 -40
-200 0 -200 0 0 40 0 40 200 0 200 0 0 -40z m0 -160 l0 -40 -200 0 -200 0 0
40 0 40 200 0 200 0 0 -40z"/>
</g>
</svg>
